<svg xmlns="http://www.w3.org/2000/svg" height="1511.813" width="1511.813" xml:space="preserve"><defs><linearGradient id="b" spreadMethod="pad" gradientTransform="matrix(161.15601 0 0 -161.15601 160.008 537.562)" gradientUnits="userSpaceOnUse" y2="0" x2="1" y1="0" x1="0"><stop offset="0" style="stop-opacity:1;stop-color:#0f4c75"/><stop offset=".506" style="stop-opacity:1;stop-color:#55c2ff"/><stop offset="1" style="stop-opacity:1;stop-color:#55c2ff"/></linearGradient><linearGradient id="c" spreadMethod="pad" gradientTransform="matrix(115.35184 0 0 -115.35184 172.118 616.306)" gradientUnits="userSpaceOnUse" y2="0" x2="1" y1="0" x1="0"><stop offset="0" style="stop-opacity:1;stop-color:#0f4c75"/><stop offset=".506" style="stop-opacity:1;stop-color:#55c2ff"/><stop offset="1" style="stop-opacity:1;stop-color:#55c2ff"/></linearGradient><linearGradient id="d" spreadMethod="pad" gradientTransform="scale(122.39187 -122.39187) rotate(-22.787 -8.356 -5.902)" gradientUnits="userSpaceOnUse" y2="0" x2="1" y1="0" x1="0"><stop offset="0" style="stop-opacity:1;stop-color:#55c2ff"/><stop offset=".494" style="stop-opacity:1;stop-color:#55c2ff"/><stop offset="1" style="stop-opacity:1;stop-color:#0f4c75"/></linearGradient><clipPath id="a" clipPathUnits="userSpaceOnUse"><path d="M0 1133.858h1133.858V0H0z"/></clipPath></defs><g clip-path="url(#a)" transform="matrix(1.33333 0 0 -1.33333 0 1511.813)"><path style="fill:#145072;fill-opacity:1;fill-rule:nonzero;stroke:none" d="M0 0v39.04c-.088 4.454.437 7.205 1.572 8.254 1.134 1.395 3.669 2.096 7.599 2.096h34.192v-7.205H14.018c-2.708.261-3.931-1.094-3.668-4.062V7.074h33.8c2.705-.262 3.93 1.135 3.668 4.193V49.39h10.48V10.219c.086-4.368-.481-7.119-1.703-8.254C55.459.655 52.927 0 48.997 0zm-.393 64.586h57.905v-7.074H-.393zm-18.603 6.157c-.087 4.367.479 7.118 1.704 8.254 1.133 1.396 3.667 2.096 7.598 2.096h72.446l-.786 6.681h11.529l.786-6.681h5.634c2.705-.261 3.929 1.091 3.668 4.061v2.49h10.48v-3.407c.086-4.368-.481-7.119-1.703-8.253-1.136-1.399-3.625-2.096-7.467-2.096h-9.695l5.11-43.101h.261c2.794-.263 4.061 1.091 3.8 4.061v23.057h10.349V33.931c.086-4.454-.438-7.205-1.572-8.253-1.136-1.399-3.668-2.097-7.599-2.097h-4.323l1.572-13.362c.349-3.321 1.004-5.371 1.966-6.157.871-.874 3.056-1.268 6.55-1.18h4.192v-7.074H84.63c-4.892-.086-8.079.524-9.563 1.835-1.66 1.046-2.708 3.668-3.145 7.859l-2.226 18.079h-5.371v7.206h4.585l-5.241 43.101H-4.847c-2.708.261-3.93-1.093-3.668-4.061V11.791c.086-6.639-.7-10.874-2.359-12.708-1.66-2.184-5.023-3.275-10.087-3.275h-8.253v7.074h4.716c3.842-.176 5.676 2.139 5.502 6.944z" transform="translate(391.724 509.165)"/><path style="fill:#145072;fill-opacity:1;fill-rule:nonzero;stroke:none" d="M0 0v-18.604h39.433c2.794-.175 4.061 1.223 3.799 4.193V0zm-10.219 25.808h-39.433c-2.708.262-3.93-1.136-3.668-4.192V7.205h43.101zm-57.38-60.132H55.809v-7.205H-67.599zM53.582 32.882v-48.21c.085-4.454-.439-7.25-1.573-8.384-1.136-1.31-3.668-1.966-7.599-1.966h-54.629V0H-53.32v-18.604h40.219v-7.074H-63.8v48.211c-.088 4.454.479 7.248 1.703 8.384 1.134 1.31 3.668 1.965 7.599 1.965h85.022l-1.048-7.074H0V7.205h43.232v18.603H32.096l1.443 10.088c.522 2.358-.526 3.492-3.146 3.406h-84.106c-3.405 0-6.026 1.003-7.86 3.013-.35.348-.655.655-.918.917l-5.371 7.206h10.744l1.703-2.097c1.047-1.398 2.269-2.053 3.667-1.965h88.954c5.588.348 7.991-1.617 7.204-5.896l-1.047-7.598z" transform="translate(562.426 547.026)"/><path style="fill:#145072;fill-opacity:1;fill-rule:nonzero;stroke:none" d="M0 0v-7.205h-9.302c-2.97 0-4.978.305-6.026.917-1.048.435-2.227 1.789-3.537 4.06l-10.612 16.901h12.971l7.597-12.184C-8.036.655-6.551-.176-4.454 0zm25.547-34.848c.084-4.454-.482-7.25-1.703-8.383-1.138-1.311-3.627-1.966-7.469-1.966h-34.716c-5.067-.086-8.778 1.615-11.136 5.109l-3.929 5.634 5.895 5.764 3.667-5.372c1.921-2.795 4.586-4.149 7.992-4.061h27.248c2.708-.262 3.932 1.134 3.669 4.192v64.587c.263 3.055-.961 4.454-3.669 4.192h-39.301c-3.406 0-6.027 1.003-7.861 3.013l-.917.917-5.895 7.992h10.875l2.095-2.883c1.048-1.398 2.271-2.053 3.67-1.965h42.313c3.842 0 6.331-.655 7.469-1.964 1.221-1.137 1.787-3.931 1.703-8.386zM-84.761 40.743c1.31-.088 2.49.567 3.536 1.965l3.014 4.062h10.742l-6.812-9.171-.786-.786c-1.486-2.272-4.106-3.32-7.861-3.145h-2.619c-2.62.086-3.8-1.309-3.537-4.191V5.24h-10.481v25.154c-.088 4.454.479 7.248 1.703 8.384 1.133 1.31 3.623 1.965 7.466 1.965zm42.577-75.591c.085-4.454-.481-7.25-1.703-8.383-1.136-1.311-3.626-1.966-7.467-1.966h-48.211v33.93c-.088 5.153.436 8.34 1.572 9.564C-96.859-.045-94.414.786-90.656.786h33.537v-7.205h-29.215c-2.184.262-3.101-.832-2.75-3.275v-28.429h32.751c2.707-.262 3.931 1.134 3.668 4.192v67.599h-22.402c.699.263 1.485.873 2.358 1.835l1.179 1.179 3.013 4.061h26.333z" transform="translate(724.481 550.039)"/><path style="fill:#145072;fill-opacity:1;fill-rule:nonzero;stroke:none" d="M0 0h-10.35v57.773c.086 4.629-1.791 6.899-5.633 6.813h-12.446v7.205h16.115c4.978 0 8.296-1.136 9.956-3.406C-.7 66.551.086 62.313 0 55.677zm-52.272 89.215V7.467c.085-4.368-.48-7.119-1.704-8.254-1.135-1.398-3.625-2.096-7.466-2.096h-12.315c-5.328 0-9.084 1.746-11.266 5.24l-3.799 5.634 5.763 5.633 3.799-5.371c2.009-2.708 4.672-4.019 7.992-3.931h4.847c2.706-.261 3.932 1.092 3.669 4.062v80.831zM-115.023.393v55.284c-.088 6.636.697 10.874 2.357 12.708 1.658 2.27 5.021 3.406 10.088 3.406h15.982v-7.205h-12.445c-3.844.086-5.679-2.184-5.502-6.813V.393z" transform="translate(876.317 507.724)"/><path style="fill:#145072;fill-opacity:1;fill-rule:nonzero;stroke:none" d="M0 0c.086-6.55-.7-10.787-2.358-12.707-1.573-2.185-4.893-3.275-9.956-3.275h-42.054v7.205h38.385c3.842-.088 5.718 2.182 5.632 6.812v42.446H-31.18v7.206H0zm-68.124-15.982v47.555c-.175 6.462.61 10.655 2.358 12.577 1.92 2.358 5.503 3.537 10.744 3.537h11.134v28.297h10.35v-8.122H.393v-7.075h-33.931V40.481h-17.817c-4.28.086-6.376-2.183-6.288-6.812v-49.651zM-79.26-7.336h7.075v-7.205h-24.76l-2.096 7.205h8.516l6.419 23.058c.872 2.967 1.396 5.109 1.572 6.419.174 1.396.262 3.58.262 6.549v34.193h-15.459c.698.349 1.527 1.049 2.489 2.096.435.437.787.787 1.048 1.049l3.013 3.93h22.664v-7.075h-3.406V28.036c.262-5.765-.48-11.486-2.227-17.162zm-43.886 77.294h15.458c1.397-.088 2.621.567 3.668 1.965l3.013 4.061h10.874l-6.942-9.17-.786-.786c-1.488-2.272-4.107-3.32-7.862-3.145h-3.668V28.69c0-3.143.086-5.371.262-6.68.174-1.399.655-3.494 1.441-6.288l8.516-30.263h-23.974v7.205h10.743l-5.11 18.21c-.963 3.492-1.572 6.331-1.835 8.516-.349 2.358-.523 5.24-.523 8.646v34.847h-3.275z" transform="translate(1011.124 520.824)"/><path style="fill:#145072;fill-opacity:1;fill-rule:nonzero;stroke:none" d="M0 0h13.962c2.601-.195 4.009-2.049 4.225-5.561-.196-3.462-1.604-5.279-4.225-5.45H-5.104v1.903h18.216c1.603.121 2.473 1.34 2.61 3.657-.117 2.244-.987 3.415-2.61 3.513H-.88c-2.601.169-4.009 1.999-4.224 5.487.215 3.536 1.623 5.389 4.224 5.56h19.067V7.17H0c-1.643-.098-2.522-1.268-2.64-3.512C-2.503 1.341-1.623.122 0 0" transform="translate(367.375 475.249)"/><path style="fill:#145072;fill-opacity:1;fill-rule:nonzero;stroke:none" d="M0 0v20.12h2.582L12.643 4.279 22.675 20.12h2.58V0h-2.434v16.242L12.643 0 2.435 16.242V0z" transform="translate(388.29 464.238)"/><path style="fill:#145072;fill-opacity:1;fill-rule:nonzero;stroke:none" d="M0 0h9.035L4.518 8.854zm5.808 11.121L16.075-9.035h-2.406l-3.637 7.097H-.997l-3.608-7.097H-7.04L3.227 11.121z" transform="translate(422.667 473.273)"/><path style="fill:#145072;fill-opacity:1;fill-rule:nonzero;stroke:none" d="M0 0v20.12h2.435V1.938h20.621V0z" transform="translate(441.938 464.238)"/><path style="fill:#145072;fill-opacity:1;fill-rule:nonzero;stroke:none" d="M0 0v20.12h2.435V1.938h20.621V0z" transform="translate(468.514 464.238)"/><path style="fill:#145072;fill-opacity:1;fill-rule:nonzero;stroke:none" d="M0 0h13.963c2.6-.195 4.009-2.049 4.224-5.561-.196-3.462-1.604-5.279-4.224-5.45H-5.104v1.903h18.216c1.604.121 2.473 1.34 2.611 3.657-.118 2.244-.988 3.415-2.611 3.513H-.879c-2.602.169-4.009 1.999-4.225 5.487.216 3.536 1.623 5.389 4.225 5.56h19.066V7.17H0c-1.643-.098-2.523-1.268-2.64-3.512C-2.503 1.341-1.623.122 0 0" transform="translate(507.438 475.249)"/><path style="fill:#145072;fill-opacity:1;fill-rule:nonzero;stroke:none" d="M0 0v1.938h23.026V0H12.73v-18.218h-2.435V0z" transform="translate(527.971 482.456)"/><path style="fill:#145072;fill-opacity:1;fill-rule:nonzero;stroke:none" d="M0 0h9.035L4.518 8.854zm5.809 11.121L16.074-9.035h-2.405l-3.637 7.097H-.997l-3.608-7.097H-7.04L3.226 11.121z" transform="translate(559.738 473.273)"/><path style="fill:#145072;fill-opacity:1;fill-rule:nonzero;stroke:none" d="M0 0v1.938h23.026V0H12.729v-18.218h-2.434V0z" transform="translate(577.544 482.456)"/><path style="fill:#145072;fill-opacity:1;fill-rule:nonzero;stroke:none" d="M604.675 484.394h2.436v-20.156h-2.436z"/><path style="fill:#145072;fill-opacity:1;fill-rule:nonzero;stroke:none" d="M0 0v-10.207c.059-1.902.89-2.914 2.493-3.036H15.78c1.604.122 2.436 1.134 2.494 3.036V0c-.058 1.901-.89 2.914-2.494 3.036H2.493C.89 2.914.059 1.901 0 0m16.251-15.182H2.024c-3.051-.122-4.538 1.719-4.459 5.524v9.109c-.079 3.804 1.408 5.646 4.459 5.524h14.227c3.051.122 4.536-1.72 4.458-5.524v-9.109c.078-3.805-1.407-5.646-4.458-5.524" transform="translate(614.238 479.42)"/><path style="fill:#145072;fill-opacity:1;fill-rule:nonzero;stroke:none" d="M0 0v20.156h3.725L20.709 2.451v17.705h2.406V0h-3.814L2.435 17.596V0z" transform="translate(637.88 464.238)"/><path style="fill:#145072;fill-opacity:1;fill-rule:nonzero;stroke:none" d="M0 0v20.156h23.057v-1.938H2.436V9.584h20.621V7.646H2.436V0z" transform="translate(673.254 464.238)"/><path style="fill:#145072;fill-opacity:1;fill-rule:nonzero;stroke:none" d="M0 0v-10.207c.059-1.902.89-2.914 2.493-3.036H15.78c1.604.122 2.436 1.134 2.494 3.036V0c-.058 1.901-.89 2.914-2.494 3.036H2.493C.89 2.914.059 1.901 0 0m16.251-15.182H2.024c-3.05-.122-4.538 1.719-4.459 5.524v9.109c-.079 3.804 1.409 5.646 4.459 5.524h14.227c3.051.122 4.536-1.72 4.458-5.524v-9.109c.078-3.805-1.407-5.646-4.458-5.524" transform="translate(702.676 479.42)"/><path style="fill:#145072;fill-opacity:1;fill-rule:nonzero;stroke:none" d="M0 0v14.486h2.434v-3.475h15.752c1.623.122 2.502 1.341 2.639 3.658-.117 2.244-.997 3.414-2.639 3.512H0v1.939h19.064c2.601-.171 4.01-2.024 4.225-5.56-.195-3.463-1.602-5.281-4.225-5.452h-.673L23.201 0h-2.904l-4.78 9.108H2.434V0z" transform="translate(727.053 464.238)"/><path style="fill:#145072;fill-opacity:1;fill-rule:nonzero;stroke:none" d="M0 0h13.963c2.6-.195 4.01-2.049 4.224-5.561-.195-3.462-1.604-5.279-4.224-5.45H-5.104v1.903h18.217c1.603.121 2.473 1.34 2.611 3.657-.119 2.244-.989 3.415-2.611 3.513H-.879C-3.48-1.769-4.888.061-5.104 3.549c.216 3.536 1.624 5.389 4.225 5.56h19.066V7.17H0c-1.642-.098-2.522-1.268-2.639-3.512C-2.503 1.341-1.622.122 0 0" transform="translate(766.826 475.249)"/><path style="fill:#145072;fill-opacity:1;fill-rule:nonzero;stroke:none" d="M0 0h9.035L4.518 8.854zm5.809 11.121L16.074-9.035H13.67l-3.638 7.097H-.997l-3.607-7.097h-2.435L3.227 11.121z" transform="translate(794.34 473.273)"/><path style="fill:#145072;fill-opacity:1;fill-rule:nonzero;stroke:none" d="M0 0v20.12h2.436V1.938h20.621V0z" transform="translate(813.611 464.238)"/><path style="fill:#145072;fill-opacity:1;fill-rule:nonzero;stroke:none" d="M0 0v1.938h23.026V0H12.729v-18.218h-2.434V0z" transform="translate(838.722 482.456)"/><path style="fill:#145072;fill-opacity:1;fill-rule:nonzero;stroke:none" d="M0 0v20.156h23.055v-1.938H2.435v-7.17h20.62v-1.94H2.435v-7.17h20.62V0z" transform="translate(864.68 464.238)"/><path style="fill:#145072;fill-opacity:1;fill-rule:nonzero;stroke:none" d="M0 0v10.17c-.059 1.902-.891 2.914-2.494 3.036h-18.215v1.94h18.685c3.05.121 4.536-1.708 4.458-5.488V.513c.078-3.782-1.408-5.61-4.458-5.488h-18.685V7.5h2.435V-3.036h15.78C-.891-2.914-.059-1.902 0 0" transform="translate(911.525 469.213)"/><path style="fill:#145072;fill-opacity:1;fill-rule:nonzero;stroke:none" d="M0 0v20.156h23.056v-1.938H2.436V9.584h20.62V7.646H2.436V0z" transform="translate(926.366 464.238)"/><path style="fill:#145072;fill-opacity:1;fill-rule:nonzero;stroke:none" d="M955.112 484.394h2.436v-20.156h-2.436z"/><path style="fill:#145072;fill-opacity:1;fill-rule:nonzero;stroke:none" d="M0 0h13.964c2.599-.195 4.009-2.049 4.223-5.561-.195-3.462-1.604-5.279-4.223-5.45H-5.104v1.903h18.217c1.604.121 2.473 1.34 2.611 3.657-.119 2.244-.988 3.415-2.611 3.513H-.879C-3.48-1.769-4.888.061-5.104 3.549c.216 3.536 1.624 5.389 4.225 5.56h19.066V7.17H0c-1.642-.098-2.522-1.268-2.639-3.512C-2.503 1.341-1.622.122 0 0" transform="translate(967.314 475.249)"/><path style="fill:#145072;fill-opacity:1;fill-rule:nonzero;stroke:none" d="M0 0v20.156h2.435v-9.108h18.186v9.108h2.405V0h-2.405v9.108H2.435V0z" transform="translate(988.729 464.238)"/></g><path style="fill:url(#b);stroke:none" d="M160.008 600.043c.013-6.042 1.371-11.915 2.745-17.737 3.664-15.528 13.136-25.339 28.86-29.119 8.758-2.106 17.632-3.54 26.447-5.314 13.527-2.724 27.233-4.89 40.036-10.302a60.742 60.742 0 0 0 4.903-2.324c43.723-12.515 49.49-54.247 50.228-63.251 6.179 14.128 8.353 29.542 7.873 45.72-.48 16.193-7.404 29.461-19.833 39.835-8.71 7.269-18.925 11.718-29.46 15.525-20.332 7.347-41.808 9.492-62.817 13.767-15.972 3.25-32.23 5.671-46.009 15.509-.772.551-1.344.777-1.767.777-1.175 0-1.208-1.738-1.206-3.086" transform="matrix(1.33333 0 0 -1.33333 0 1511.813)"/><path style="fill:url(#c);stroke:none" d="M172.233 652.843c.622-4.618 1.329-9.232 2.241-13.801 2.53-12.667 9.904-20.752 22.663-23.744 13.122-3.077 26.392-5.685 39.278-9.559 18.568-5.583 38.683-8.831 50.6-29.033.405 8.786.609 16.011.317 23.343-.54 13.548-7.125 22.435-18.734 28.348-16.287 8.298-34.082 11.151-51.767 14.454-14.513 2.712-29.423 4.035-42.305 12.467-.634.415-1.108.586-1.459.586-1.189 0-.983-1.953-.834-3.061" transform="matrix(1.33333 0 0 -1.33333 0 1511.813)"/><path style="fill:url(#d);stroke:none" d="M278.264 516.952c3.222-14.531.387-28.218-8.257-40.33-8.969-12.569-22.218-19.285-36.12-24.845-5.325-2.131-5.651-1.895-5.653 3.774-.007 16.827 0 33.653.153 50.479.028 3.211-.946 4.683-4.284 4.436-3.984-.293-7.992-.266-11.971-.607-14.849-1.273-21.166-8.135-21.187-22.906-.016-11.829-.003-23.659-.003-35.489h-.018c0-13.162.167-26.327-.085-39.485-.095-4.912 1.766-6.373 6.456-6.169 22.821.997 44.376 6.847 64.842 16.764 14.369 6.962 27.326 15.991 37.768 28.215 5.689 6.66 10.062 13.755 13.322 21.207-.738 9.004-6.505 50.736-50.228 63.251 7.339-3.91 13.297-9.418 15.265-18.295M208 445.433a7.5 7.5 0 0 0 7.5 7.5 7.5 7.5 0 1 0 0-14.999 7.5 7.5 0 0 0-7.5 7.499" transform="matrix(1.33333 0 0 -1.33333 0 1511.813)"/></svg>